<?xml version="1.0" encoding="utf-8"?>
<!-- Generator: Adobe Illustrator 25.2.0, SVG Export Plug-In . SVG Version: 6.00 Build 0)  -->
<svg version="1.1" id="Layer_1" xmlns="http://www.w3.org/2000/svg" xmlns:xlink="http://www.w3.org/1999/xlink" x="0px" y="0px"
	 viewBox="0 0 513.071 388.346" enable-background="new 0 0 513.071 388.346" xml:space="preserve">
<rect x="14.174" y="14.173" fill="none" stroke="#000000" stroke-miterlimit="10" width="153.071" height="331.654"/>
<g>
	<g>
		<polyline fill="none" stroke="#939598" stroke-miterlimit="10" points="450.709,344.327 450.709,345.827 449.209,345.827 		"/>
		
			<line fill="none" stroke="#939598" stroke-miterlimit="10" stroke-dasharray="2.9426,2.9426" x1="446.266" y1="345.827" x2="300.609" y2="345.827"/>
		<polyline fill="none" stroke="#939598" stroke-miterlimit="10" points="299.138,345.827 297.638,345.827 297.638,344.327 		"/>
		
			<line fill="none" stroke="#939598" stroke-miterlimit="10" stroke-dasharray="3.0239,3.0239" x1="297.638" y1="341.303" x2="297.638" y2="76.713"/>
		<polyline fill="none" stroke="#939598" stroke-miterlimit="10" points="297.638,75.201 297.638,73.701 299.138,73.701 		"/>
		
			<line fill="none" stroke="#939598" stroke-miterlimit="10" stroke-dasharray="2.9426,2.9426" x1="302.081" y1="73.701" x2="447.738" y2="73.701"/>
		<polyline fill="none" stroke="#939598" stroke-miterlimit="10" points="449.209,73.701 450.709,73.701 450.709,75.201 		"/>
		
			<line fill="none" stroke="#939598" stroke-miterlimit="10" stroke-dasharray="3.0239,3.0239" x1="450.709" y1="78.225" x2="450.709" y2="342.815"/>
	</g>
</g>
<rect x="297.638" y="73.701" fill="none" stroke="#000000" stroke-miterlimit="10" width="126.146" height="272.126"/>
<g>
	<path d="M78.994,374.173h-3.936v-0.742h1.514v-4.873h-1.514v-0.664c0.205,0,0.425-0.018,0.659-0.051
		c0.234-0.035,0.412-0.084,0.532-0.149c0.15-0.081,0.268-0.185,0.354-0.31c0.086-0.126,0.136-0.294,0.149-0.506h0.757v6.553h1.484
		V374.173z"/>
	<path d="M85.757,370.535c0,1.306-0.204,2.263-0.613,2.874c-0.409,0.609-1.042,0.915-1.902,0.915c-0.873,0-1.51-0.31-1.912-0.928
		s-0.603-1.569-0.603-2.852c0-1.292,0.204-2.247,0.61-2.864c0.407-0.616,1.042-0.925,1.904-0.925c0.873,0,1.51,0.313,1.912,0.94
		C85.556,368.322,85.757,369.268,85.757,370.535z M84.473,372.752c0.114-0.264,0.191-0.573,0.232-0.931
		c0.041-0.355,0.061-0.785,0.061-1.286c0-0.495-0.021-0.925-0.061-1.289s-0.12-0.674-0.237-0.928
		c-0.114-0.251-0.27-0.439-0.466-0.566s-0.45-0.19-0.759-0.19c-0.306,0-0.559,0.063-0.759,0.19s-0.359,0.319-0.476,0.576
		c-0.111,0.241-0.187,0.555-0.227,0.942s-0.061,0.812-0.061,1.274c0,0.508,0.018,0.933,0.054,1.274s0.112,0.647,0.229,0.918
		c0.107,0.254,0.26,0.447,0.457,0.581s0.458,0.2,0.784,0.2c0.306,0,0.56-0.063,0.762-0.19S84.362,373.009,84.473,372.752z"/>
	<path d="M92.178,372.146c0,0.628-0.245,1.15-0.735,1.567s-1.106,0.625-1.848,0.625c-0.788,0-1.415-0.203-1.882-0.61
		s-0.701-0.928-0.701-1.562c0-0.403,0.117-0.769,0.352-1.097c0.234-0.326,0.565-0.586,0.991-0.778v-0.029
		c-0.391-0.208-0.68-0.437-0.867-0.684s-0.281-0.557-0.281-0.928c0-0.547,0.225-1.003,0.674-1.367s1.021-0.547,1.714-0.547
		c0.726,0,1.305,0.174,1.738,0.522s0.649,0.791,0.649,1.328c0,0.329-0.103,0.652-0.308,0.969c-0.205,0.318-0.506,0.566-0.903,0.745
		v0.029c0.456,0.195,0.804,0.437,1.045,0.723S92.178,371.704,92.178,372.146z M91.172,372.239c0-0.3-0.066-0.539-0.198-0.721
		c-0.132-0.18-0.39-0.361-0.774-0.544c-0.153-0.071-0.321-0.139-0.503-0.2s-0.425-0.148-0.728-0.259
		c-0.293,0.159-0.528,0.376-0.706,0.649s-0.266,0.583-0.266,0.928c0,0.439,0.151,0.803,0.454,1.089s0.687,0.43,1.152,0.43
		c0.475,0,0.855-0.122,1.14-0.366S91.172,372.666,91.172,372.239z M91.021,368.597c0-0.349-0.134-0.626-0.403-0.832
		c-0.269-0.207-0.611-0.311-1.028-0.311c-0.41,0-0.746,0.098-1.008,0.293s-0.393,0.459-0.393,0.791c0,0.234,0.066,0.438,0.198,0.607
		c0.132,0.172,0.331,0.323,0.598,0.457c0.121,0.059,0.294,0.135,0.52,0.229s0.447,0.173,0.662,0.234
		c0.322-0.215,0.545-0.438,0.669-0.669S91.021,368.899,91.021,368.597z"/>
	<path d="M98.472,370.535c0,1.306-0.204,2.263-0.613,2.874c-0.409,0.609-1.042,0.915-1.902,0.915c-0.873,0-1.51-0.31-1.912-0.928
		s-0.603-1.569-0.603-2.852c0-1.292,0.204-2.247,0.61-2.864c0.407-0.616,1.042-0.925,1.904-0.925c0.873,0,1.51,0.313,1.912,0.94
		C98.271,368.322,98.472,369.268,98.472,370.535z M97.188,372.752c0.114-0.264,0.191-0.573,0.232-0.931
		c0.041-0.355,0.061-0.785,0.061-1.286c0-0.495-0.021-0.925-0.061-1.289s-0.12-0.674-0.237-0.928
		c-0.114-0.251-0.27-0.439-0.466-0.566s-0.45-0.19-0.759-0.19c-0.306,0-0.559,0.063-0.759,0.19s-0.359,0.319-0.476,0.576
		c-0.111,0.241-0.187,0.555-0.227,0.942s-0.061,0.812-0.061,1.274c0,0.508,0.018,0.933,0.054,1.274s0.112,0.647,0.229,0.918
		c0.107,0.254,0.26,0.447,0.457,0.581s0.458,0.2,0.784,0.2c0.306,0,0.56-0.063,0.762-0.19S97.077,373.009,97.188,372.752z"/>
</g>
<g>
	<path d="M360.092,372.146c0,0.628-0.245,1.15-0.735,1.567s-1.106,0.625-1.848,0.625c-0.788,0-1.415-0.203-1.882-0.61
		s-0.701-0.928-0.701-1.562c0-0.403,0.117-0.769,0.352-1.097c0.234-0.326,0.565-0.586,0.991-0.778v-0.029
		c-0.391-0.208-0.68-0.437-0.867-0.684s-0.281-0.557-0.281-0.928c0-0.547,0.225-1.003,0.674-1.367s1.021-0.547,1.714-0.547
		c0.726,0,1.305,0.174,1.738,0.522s0.649,0.791,0.649,1.328c0,0.329-0.103,0.652-0.308,0.969c-0.205,0.318-0.506,0.566-0.903,0.745
		v0.029c0.456,0.195,0.804,0.437,1.045,0.723S360.092,371.704,360.092,372.146z M359.086,372.239c0-0.3-0.066-0.539-0.198-0.721
		c-0.132-0.18-0.39-0.361-0.774-0.544c-0.153-0.071-0.321-0.139-0.503-0.2s-0.425-0.148-0.728-0.259
		c-0.293,0.159-0.528,0.376-0.706,0.649s-0.266,0.583-0.266,0.928c0,0.439,0.151,0.803,0.454,1.089s0.687,0.43,1.152,0.43
		c0.475,0,0.855-0.122,1.14-0.366S359.086,372.666,359.086,372.239z M358.935,368.597c0-0.349-0.134-0.626-0.403-0.832
		c-0.269-0.207-0.611-0.311-1.028-0.311c-0.41,0-0.746,0.098-1.008,0.293s-0.393,0.459-0.393,0.791c0,0.234,0.066,0.438,0.198,0.607
		c0.132,0.172,0.331,0.323,0.598,0.457c0.121,0.059,0.294,0.135,0.52,0.229s0.447,0.173,0.662,0.234
		c0.322-0.215,0.545-0.438,0.669-0.669S358.935,368.899,358.935,368.597z"/>
	<path d="M366.45,372.146c0,0.628-0.245,1.15-0.735,1.567s-1.106,0.625-1.848,0.625c-0.788,0-1.415-0.203-1.882-0.61
		s-0.701-0.928-0.701-1.562c0-0.403,0.117-0.769,0.352-1.097c0.234-0.326,0.565-0.586,0.991-0.778v-0.029
		c-0.391-0.208-0.68-0.437-0.867-0.684s-0.281-0.557-0.281-0.928c0-0.547,0.225-1.003,0.674-1.367s1.021-0.547,1.714-0.547
		c0.726,0,1.305,0.174,1.738,0.522s0.649,0.791,0.649,1.328c0,0.329-0.103,0.652-0.308,0.969c-0.205,0.318-0.506,0.566-0.903,0.745
		v0.029c0.456,0.195,0.804,0.437,1.045,0.723S366.45,371.704,366.45,372.146z M365.444,372.239c0-0.3-0.066-0.539-0.198-0.721
		c-0.132-0.18-0.39-0.361-0.774-0.544c-0.153-0.071-0.321-0.139-0.503-0.2s-0.425-0.148-0.728-0.259
		c-0.293,0.159-0.528,0.376-0.706,0.649s-0.266,0.583-0.266,0.928c0,0.439,0.151,0.803,0.454,1.089s0.687,0.43,1.152,0.43
		c0.475,0,0.855-0.122,1.14-0.366S365.444,372.666,365.444,372.239z M365.292,368.597c0-0.349-0.134-0.626-0.403-0.832
		c-0.269-0.207-0.611-0.311-1.028-0.311c-0.41,0-0.746,0.098-1.008,0.293s-0.393,0.459-0.393,0.791c0,0.234,0.066,0.438,0.198,0.607
		c0.132,0.172,0.331,0.323,0.598,0.457c0.121,0.059,0.294,0.135,0.52,0.229s0.447,0.173,0.662,0.234
		c0.322-0.215,0.545-0.438,0.669-0.669S365.292,368.899,365.292,368.597z"/>
	<path d="M372.861,371.814c0,0.739-0.243,1.342-0.73,1.81c-0.487,0.467-1.083,0.7-1.79,0.7c-0.358,0-0.684-0.056-0.977-0.166
		s-0.552-0.275-0.776-0.493c-0.28-0.271-0.496-0.628-0.647-1.074s-0.227-0.983-0.227-1.611c0-0.645,0.069-1.216,0.208-1.714
		s0.359-0.94,0.662-1.328c0.287-0.368,0.656-0.655,1.108-0.862c0.453-0.206,0.98-0.31,1.582-0.31c0.192,0,0.353,0.008,0.483,0.024
		s0.262,0.046,0.396,0.088v0.933h-0.049c-0.091-0.049-0.229-0.095-0.413-0.14c-0.184-0.043-0.372-0.065-0.564-0.065
		c-0.7,0-1.258,0.219-1.675,0.657c-0.417,0.438-0.659,1.029-0.728,1.774c0.273-0.166,0.543-0.292,0.808-0.378
		c0.265-0.087,0.572-0.13,0.92-0.13c0.309,0,0.582,0.028,0.818,0.085c0.236,0.058,0.478,0.172,0.725,0.345
		c0.287,0.198,0.502,0.449,0.647,0.752S372.861,371.382,372.861,371.814z M371.869,371.853c0-0.303-0.045-0.554-0.134-0.752
		s-0.237-0.371-0.442-0.518c-0.15-0.104-0.316-0.173-0.498-0.205s-0.373-0.049-0.571-0.049c-0.277,0-0.534,0.032-0.771,0.098
		s-0.482,0.166-0.732,0.303c-0.006,0.071-0.011,0.141-0.015,0.208c-0.003,0.066-0.005,0.15-0.005,0.251
		c0,0.515,0.053,0.921,0.159,1.218c0.106,0.299,0.251,0.533,0.437,0.706c0.15,0.144,0.312,0.248,0.486,0.315
		c0.174,0.066,0.364,0.1,0.569,0.1c0.472,0,0.843-0.145,1.113-0.432C371.734,372.807,371.869,372.393,371.869,371.853z"/>
</g>
<g>
	<path d="M478.68,212.598h-3.936v-0.742h1.514v-4.873h-1.514v-0.664c0.205,0,0.425-0.018,0.659-0.051
		c0.234-0.035,0.411-0.084,0.532-0.149c0.149-0.081,0.268-0.185,0.354-0.31c0.087-0.126,0.136-0.294,0.149-0.506h0.757v6.553h1.484
		V212.598z"/>
	<path d="M485.442,208.526c0,0.635-0.072,1.211-0.218,1.729c-0.145,0.518-0.363,0.959-0.656,1.323
		c-0.297,0.371-0.668,0.657-1.113,0.859c-0.446,0.202-0.971,0.303-1.572,0.303c-0.17,0-0.329-0.009-0.479-0.026
		c-0.15-0.019-0.283-0.047-0.4-0.086v-0.933h0.049c0.094,0.049,0.228,0.095,0.4,0.14c0.172,0.043,0.364,0.065,0.576,0.065
		c0.719,0,1.283-0.216,1.691-0.647c0.409-0.431,0.646-1.025,0.711-1.784c-0.303,0.183-0.588,0.312-0.854,0.391
		c-0.268,0.078-0.559,0.117-0.874,0.117c-0.3,0-0.57-0.029-0.813-0.088c-0.242-0.059-0.485-0.173-0.729-0.342
		c-0.287-0.198-0.502-0.451-0.647-0.757c-0.145-0.306-0.217-0.672-0.217-1.099c0-0.742,0.244-1.346,0.732-1.812
		s1.084-0.698,1.787-0.698c0.352,0,0.677,0.055,0.977,0.163c0.299,0.109,0.562,0.273,0.786,0.491
		c0.276,0.271,0.489,0.618,0.64,1.042C485.367,207.304,485.442,207.852,485.442,208.526z M484.456,208.316
		c0-0.505-0.053-0.91-0.156-1.216c-0.104-0.306-0.248-0.544-0.43-0.713c-0.153-0.146-0.317-0.252-0.493-0.314
		c-0.176-0.064-0.366-0.096-0.571-0.096c-0.469,0-0.839,0.146-1.111,0.439c-0.271,0.293-0.407,0.705-0.407,1.235
		c0,0.31,0.044,0.562,0.132,0.757s0.235,0.366,0.444,0.513c0.146,0.101,0.308,0.169,0.483,0.202
		c0.176,0.035,0.371,0.052,0.586,0.052c0.254,0,0.511-0.034,0.771-0.103c0.26-0.068,0.504-0.168,0.732-0.298
		c0.003-0.068,0.007-0.136,0.012-0.202C484.453,208.506,484.456,208.421,484.456,208.316z"/>
	<path d="M491.809,212.598h-4.922v-1.021c0.342-0.293,0.685-0.586,1.027-0.879c0.344-0.293,0.663-0.584,0.96-0.874
		c0.625-0.605,1.053-1.086,1.284-1.443c0.23-0.355,0.347-0.741,0.347-1.154c0-0.378-0.125-0.673-0.374-0.887
		c-0.249-0.213-0.597-0.319-1.042-0.319c-0.297,0-0.617,0.052-0.962,0.156c-0.346,0.104-0.683,0.264-1.011,0.479h-0.049v-1.025
		c0.23-0.114,0.539-0.218,0.925-0.312s0.76-0.142,1.121-0.142c0.745,0,1.329,0.18,1.753,0.539c0.423,0.36,0.635,0.848,0.635,1.463
		c0,0.276-0.035,0.535-0.105,0.773c-0.069,0.24-0.173,0.467-0.31,0.682c-0.127,0.202-0.276,0.4-0.447,0.596
		s-0.378,0.412-0.622,0.649c-0.349,0.342-0.708,0.673-1.079,0.993c-0.371,0.321-0.718,0.618-1.04,0.892h3.911V212.598z"/>
	<path d="M498.157,208.961c0,1.306-0.204,2.263-0.613,2.874c-0.408,0.609-1.042,0.915-1.901,0.915c-0.873,0-1.51-0.31-1.912-0.928
		c-0.401-0.618-0.603-1.569-0.603-2.852c0-1.292,0.203-2.247,0.61-2.864c0.406-0.616,1.041-0.925,1.904-0.925
		c0.872,0,1.51,0.313,1.911,0.94C497.956,206.748,498.157,207.694,498.157,208.961z M496.873,211.178
		c0.113-0.264,0.191-0.573,0.231-0.931c0.041-0.355,0.062-0.785,0.062-1.286c0-0.495-0.021-0.925-0.062-1.289
		c-0.04-0.364-0.119-0.674-0.236-0.928c-0.114-0.251-0.27-0.439-0.467-0.566c-0.196-0.127-0.45-0.19-0.759-0.19
		c-0.307,0-0.56,0.063-0.76,0.19s-0.358,0.319-0.476,0.576c-0.111,0.241-0.187,0.555-0.228,0.942
		c-0.04,0.388-0.061,0.812-0.061,1.274c0,0.508,0.018,0.933,0.054,1.274c0.035,0.342,0.112,0.647,0.229,0.918
		c0.107,0.254,0.26,0.447,0.456,0.581c0.197,0.134,0.458,0.2,0.784,0.2c0.306,0,0.56-0.063,0.762-0.19
		C496.605,211.627,496.762,211.434,496.873,211.178z"/>
</g>
<g>
	<path d="M192.795,175.748h-4.922v-1.021c0.342-0.293,0.685-0.586,1.028-0.879s0.663-0.584,0.959-0.874
		c0.625-0.605,1.053-1.086,1.284-1.443c0.231-0.355,0.347-0.741,0.347-1.154c0-0.378-0.125-0.673-0.374-0.887
		c-0.249-0.213-0.597-0.319-1.042-0.319c-0.296,0-0.617,0.052-0.962,0.156s-0.682,0.264-1.011,0.479h-0.049v-1.025
		c0.231-0.114,0.54-0.218,0.925-0.312s0.759-0.142,1.121-0.142c0.746,0,1.33,0.18,1.753,0.539c0.423,0.36,0.635,0.848,0.635,1.463
		c0,0.276-0.035,0.535-0.105,0.773c-0.07,0.24-0.173,0.467-0.31,0.682c-0.127,0.202-0.276,0.4-0.447,0.596s-0.378,0.412-0.623,0.649
		c-0.348,0.342-0.708,0.673-1.079,0.993c-0.371,0.321-0.718,0.618-1.04,0.892h3.911V175.748z"/>
	<path d="M198.513,172.247c0.156,0.14,0.285,0.315,0.386,0.527s0.151,0.485,0.151,0.82c0,0.332-0.06,0.637-0.181,0.913
		s-0.29,0.518-0.508,0.723c-0.244,0.228-0.531,0.396-0.862,0.506c-0.331,0.108-0.692,0.163-1.086,0.163
		c-0.404,0-0.801-0.048-1.191-0.144c-0.391-0.097-0.711-0.201-0.962-0.315v-1.021h0.073c0.277,0.183,0.602,0.334,0.977,0.454
		s0.736,0.181,1.084,0.181c0.205,0,0.423-0.034,0.654-0.103s0.418-0.169,0.562-0.303c0.15-0.144,0.261-0.301,0.334-0.474
		s0.11-0.391,0.11-0.654c0-0.261-0.042-0.477-0.125-0.646c-0.083-0.172-0.198-0.306-0.344-0.403
		c-0.146-0.101-0.324-0.17-0.532-0.208c-0.208-0.037-0.433-0.056-0.674-0.056h-0.439v-0.811h0.342c0.495,0,0.89-0.104,1.184-0.31
		c0.294-0.207,0.442-0.509,0.442-0.906c0-0.176-0.038-0.33-0.112-0.461c-0.075-0.133-0.179-0.24-0.312-0.325
		c-0.14-0.085-0.29-0.144-0.449-0.176s-0.34-0.049-0.542-0.049c-0.309,0-0.638,0.056-0.986,0.166s-0.677,0.267-0.986,0.469h-0.049
		v-1.021c0.231-0.114,0.54-0.219,0.925-0.314c0.386-0.097,0.759-0.145,1.121-0.145c0.355,0,0.667,0.032,0.938,0.098
		s0.514,0.169,0.732,0.312c0.234,0.156,0.412,0.345,0.532,0.566s0.181,0.48,0.181,0.776c0,0.403-0.143,0.756-0.427,1.058
		c-0.285,0.301-0.621,0.49-1.008,0.568v0.068c0.156,0.026,0.335,0.08,0.537,0.164C198.202,172.02,198.373,172.123,198.513,172.247z"
		/>
	<path d="M205.676,173.702h-1.079v2.046h-0.938v-2.046h-3.481v-1.123l3.521-4.102h0.898v4.443h1.079V173.702z M203.66,172.921
		v-3.281l-2.817,3.281H203.66z"/>
	<path d="M211.858,172.111c0,1.306-0.204,2.263-0.613,2.874c-0.409,0.609-1.042,0.915-1.902,0.915c-0.873,0-1.51-0.31-1.912-0.928
		s-0.603-1.569-0.603-2.852c0-1.292,0.204-2.247,0.61-2.864c0.407-0.616,1.042-0.925,1.904-0.925c0.873,0,1.51,0.313,1.912,0.94
		C211.657,169.898,211.858,170.844,211.858,172.111z M210.574,174.327c0.114-0.264,0.191-0.573,0.232-0.931
		c0.041-0.355,0.061-0.785,0.061-1.286c0-0.495-0.021-0.925-0.061-1.289s-0.12-0.674-0.237-0.928
		c-0.114-0.251-0.27-0.439-0.466-0.566s-0.45-0.19-0.759-0.19c-0.306,0-0.559,0.063-0.759,0.19s-0.359,0.319-0.476,0.576
		c-0.111,0.241-0.187,0.555-0.227,0.942s-0.061,0.812-0.061,1.274c0,0.508,0.018,0.933,0.054,1.274s0.112,0.647,0.229,0.918
		c0.107,0.254,0.26,0.447,0.457,0.581s0.458,0.2,0.784,0.2c0.306,0,0.56-0.063,0.762-0.19S210.463,174.584,210.574,174.327z"/>
</g>
<g>
	<path d="M336.014,201.663c0,0.754-0.294,1.381-0.882,1.881s-1.327,0.75-2.218,0.75c-0.945,0-1.698-0.244-2.259-0.732
		s-0.841-1.113-0.841-1.875c0-0.484,0.141-0.923,0.422-1.315s0.678-0.704,1.189-0.935v-0.035c-0.469-0.25-0.815-0.523-1.04-0.82
		s-0.337-0.668-0.337-1.113c0-0.656,0.27-1.203,0.809-1.641s1.225-0.656,2.057-0.656c0.871,0,1.566,0.209,2.086,0.627
		s0.779,0.949,0.779,1.594c0,0.395-0.123,0.782-0.369,1.163s-0.607,0.679-1.084,0.894v0.035c0.547,0.234,0.965,0.523,1.254,0.867
		S336.014,201.132,336.014,201.663z M334.806,201.774c0-0.359-0.079-0.647-0.237-0.864s-0.468-0.435-0.929-0.653
		c-0.184-0.086-0.385-0.166-0.604-0.24s-0.51-0.178-0.873-0.311c-0.352,0.191-0.634,0.451-0.847,0.779s-0.319,0.699-0.319,1.113
		c0,0.527,0.182,0.963,0.545,1.307s0.824,0.516,1.383,0.516c0.57,0,1.026-0.146,1.368-0.439S334.806,202.286,334.806,201.774z
		 M334.625,197.403c0-0.418-0.161-0.751-0.483-0.999s-0.733-0.372-1.233-0.372c-0.492,0-0.896,0.117-1.21,0.352
		s-0.472,0.551-0.472,0.949c0,0.281,0.079,0.524,0.237,0.729s0.397,0.388,0.718,0.548c0.145,0.07,0.353,0.162,0.624,0.275
		s0.536,0.207,0.794,0.281c0.387-0.258,0.654-0.525,0.803-0.803S334.625,197.766,334.625,197.403z"/>
	<path d="M343.642,201.663c0,0.754-0.294,1.381-0.882,1.881s-1.327,0.75-2.218,0.75c-0.945,0-1.698-0.244-2.259-0.732
		s-0.841-1.113-0.841-1.875c0-0.484,0.141-0.923,0.422-1.315s0.678-0.704,1.189-0.935v-0.035c-0.469-0.25-0.815-0.523-1.04-0.82
		s-0.337-0.668-0.337-1.113c0-0.656,0.27-1.203,0.809-1.641s1.225-0.656,2.057-0.656c0.871,0,1.566,0.209,2.086,0.627
		s0.779,0.949,0.779,1.594c0,0.395-0.123,0.782-0.369,1.163s-0.607,0.679-1.084,0.894v0.035c0.547,0.234,0.965,0.523,1.254,0.867
		S343.642,201.132,343.642,201.663z M342.435,201.774c0-0.359-0.079-0.647-0.237-0.864s-0.468-0.435-0.929-0.653
		c-0.184-0.086-0.385-0.166-0.604-0.24s-0.51-0.178-0.873-0.311c-0.352,0.191-0.634,0.451-0.847,0.779s-0.319,0.699-0.319,1.113
		c0,0.527,0.182,0.963,0.545,1.307s0.824,0.516,1.383,0.516c0.57,0,1.026-0.146,1.368-0.439S342.435,202.286,342.435,201.774z
		 M342.254,197.403c0-0.418-0.161-0.751-0.483-0.999s-0.733-0.372-1.233-0.372c-0.492,0-0.896,0.117-1.21,0.352
		s-0.472,0.551-0.472,0.949c0,0.281,0.079,0.524,0.237,0.729s0.397,0.388,0.718,0.548c0.145,0.07,0.353,0.162,0.624,0.275
		s0.536,0.207,0.794,0.281c0.387-0.258,0.654-0.525,0.803-0.803S342.254,197.766,342.254,197.403z"/>
	<path d="M351.336,201.264c0,0.887-0.292,1.61-0.876,2.171s-1.3,0.841-2.147,0.841c-0.43,0-0.82-0.066-1.172-0.199
		s-0.662-0.33-0.932-0.592c-0.336-0.324-0.595-0.754-0.776-1.289s-0.272-1.18-0.272-1.934c0-0.773,0.083-1.459,0.249-2.057
		s0.431-1.129,0.794-1.594c0.344-0.441,0.787-0.786,1.33-1.034s1.176-0.372,1.898-0.372c0.23,0,0.424,0.01,0.58,0.029
		s0.314,0.055,0.475,0.105v1.119h-0.059c-0.109-0.059-0.274-0.114-0.495-0.167s-0.446-0.079-0.677-0.079
		c-0.84,0-1.51,0.263-2.01,0.788s-0.791,1.235-0.873,2.13c0.328-0.199,0.651-0.351,0.97-0.454s0.687-0.155,1.104-0.155
		c0.371,0,0.698,0.034,0.981,0.103s0.573,0.206,0.87,0.413c0.344,0.238,0.603,0.539,0.776,0.902S351.336,200.745,351.336,201.264z
		 M350.146,201.311c0-0.363-0.054-0.664-0.161-0.902s-0.284-0.445-0.53-0.621c-0.18-0.125-0.379-0.207-0.598-0.246
		s-0.447-0.059-0.686-0.059c-0.332,0-0.641,0.039-0.926,0.117s-0.578,0.199-0.879,0.363c-0.008,0.086-0.014,0.169-0.018,0.249
		s-0.006,0.181-0.006,0.302c0,0.617,0.063,1.104,0.19,1.462s0.302,0.64,0.524,0.847c0.18,0.172,0.374,0.298,0.583,0.378
		s0.437,0.12,0.683,0.12c0.566,0,1.012-0.173,1.336-0.519S350.146,201.96,350.146,201.311z"/>
	<path d="M360.101,202.829l-0.65,0.65l-2.555-2.578l-2.555,2.578l-0.65-0.65l2.578-2.555l-2.578-2.555l0.65-0.65l2.555,2.578
		l2.555-2.578l0.65,0.65l-2.578,2.555L360.101,202.829z"/>
	<path d="M368.158,204.095h-4.723v-0.891h1.816v-5.848h-1.816v-0.797c0.246,0,0.51-0.021,0.791-0.062s0.494-0.101,0.639-0.179
		c0.18-0.098,0.321-0.222,0.425-0.372s0.163-0.353,0.179-0.606h0.908v7.863h1.781V204.095z"/>
	<path d="M376.273,199.208c0,0.762-0.087,1.453-0.261,2.074s-0.437,1.15-0.788,1.588c-0.355,0.445-0.801,0.789-1.336,1.031
		s-1.164,0.363-1.887,0.363c-0.203,0-0.395-0.011-0.574-0.032s-0.34-0.056-0.48-0.103v-1.119h0.059
		c0.113,0.059,0.273,0.114,0.48,0.167s0.438,0.079,0.691,0.079c0.863,0,1.54-0.259,2.03-0.776s0.774-1.231,0.853-2.142
		c-0.363,0.219-0.705,0.375-1.025,0.469s-0.67,0.141-1.049,0.141c-0.359,0-0.685-0.035-0.976-0.105s-0.583-0.207-0.876-0.41
		c-0.344-0.238-0.603-0.541-0.776-0.908s-0.261-0.807-0.261-1.318c0-0.891,0.293-1.615,0.879-2.174s1.301-0.838,2.145-0.838
		c0.422,0,0.812,0.065,1.172,0.196s0.674,0.327,0.943,0.589c0.332,0.324,0.588,0.741,0.768,1.251S376.273,198.399,376.273,199.208z
		 M375.09,198.956c0-0.605-0.062-1.092-0.188-1.459s-0.297-0.652-0.516-0.855c-0.184-0.176-0.381-0.302-0.592-0.378
		s-0.439-0.114-0.686-0.114c-0.562,0-1.007,0.176-1.333,0.527s-0.489,0.846-0.489,1.482c0,0.371,0.053,0.674,0.158,0.908
		s0.283,0.439,0.533,0.615c0.176,0.121,0.369,0.202,0.58,0.243s0.445,0.062,0.703,0.062c0.305,0,0.613-0.041,0.926-0.123
		s0.605-0.201,0.879-0.357c0.004-0.082,0.009-0.163,0.015-0.243S375.09,199.081,375.09,198.956z"/>
	<path d="M383.914,204.095h-5.906v-1.225c0.41-0.352,0.821-0.703,1.233-1.055s0.796-0.701,1.151-1.049
		c0.75-0.727,1.264-1.304,1.541-1.731s0.416-0.89,0.416-1.386c0-0.453-0.149-0.808-0.448-1.063s-0.716-0.384-1.251-0.384
		c-0.355,0-0.74,0.062-1.154,0.188s-0.818,0.316-1.213,0.574h-0.059v-1.23c0.277-0.137,0.647-0.262,1.11-0.375
		s0.911-0.17,1.345-0.17c0.895,0,1.596,0.216,2.104,0.647s0.762,1.017,0.762,1.755c0,0.332-0.042,0.642-0.126,0.929
		s-0.208,0.56-0.372,0.817c-0.152,0.242-0.331,0.48-0.536,0.715s-0.454,0.494-0.747,0.779c-0.418,0.41-0.85,0.808-1.295,1.192
		s-0.861,0.741-1.248,1.069h4.693V204.095z"/>
	<path d="M391.531,199.729c0,1.566-0.245,2.716-0.735,3.448s-1.251,1.099-2.282,1.099c-1.047,0-1.812-0.371-2.294-1.113
		s-0.724-1.883-0.724-3.422c0-1.551,0.244-2.696,0.732-3.437s1.25-1.11,2.285-1.11c1.047,0,1.812,0.376,2.294,1.128
		S391.531,198.21,391.531,199.729z M389.99,202.389c0.137-0.316,0.229-0.688,0.278-1.116s0.073-0.942,0.073-1.544
		c0-0.594-0.024-1.109-0.073-1.547s-0.144-0.809-0.284-1.113c-0.137-0.301-0.323-0.527-0.56-0.68s-0.54-0.229-0.911-0.229
		c-0.367,0-0.671,0.076-0.911,0.229s-0.431,0.383-0.571,0.691c-0.133,0.289-0.224,0.666-0.272,1.131s-0.073,0.975-0.073,1.529
		c0,0.609,0.021,1.119,0.064,1.529s0.135,0.777,0.275,1.102c0.129,0.305,0.312,0.537,0.548,0.697s0.55,0.24,0.94,0.24
		c0.367,0,0.672-0.076,0.914-0.229S389.857,202.698,389.99,202.389z"/>
</g>
<polygon fill="none" stroke="#000000" stroke-width="0.5" stroke-miterlimit="10" points="246.615,192.756 257.953,201.26 
	246.615,209.764 246.615,204.095 229.607,204.095 229.607,198.425 246.615,198.425 "/>
<g>
	<g>
		
			<line fill="none" stroke="#000000" stroke-width="0.5" stroke-miterlimit="10" x1="467.717" y1="75.495" x2="467.717" y2="344.033"/>
		<g>
			<polygon points="466.47,75.86 467.717,73.701 468.963,75.86 			"/>
		</g>
		<g>
			<polygon points="466.47,343.668 467.717,345.827 468.963,343.668 			"/>
		</g>
	</g>
</g>
<g>
	<g>
		
			<line fill="none" stroke="#000000" stroke-width="0.5" stroke-miterlimit="10" x1="181.418" y1="15.968" x2="181.418" y2="344.033"/>
		<g>
			<polygon points="180.171,16.332 181.418,14.173 182.664,16.332 			"/>
		</g>
		<g>
			<polygon points="180.171,343.668 181.418,345.827 182.664,343.668 			"/>
		</g>
	</g>
</g>
<g>
	<g>
		<line fill="none" stroke="#000000" stroke-width="0.5" stroke-miterlimit="10" x1="298.019" y1="360" x2="421.99" y2="360"/>
		<g>
			<polygon points="298.383,361.247 296.225,360 298.383,358.754 			"/>
		</g>
		<g>
			<polygon points="421.625,361.247 423.784,360 421.625,358.754 			"/>
		</g>
	</g>
</g>
<g>
	<g>
		<line fill="none" stroke="#000000" stroke-width="0.5" stroke-miterlimit="10" x1="15.968" y1="360" x2="165.45" y2="360"/>
		<g>
			<polygon points="16.332,361.247 14.174,360 16.332,358.754 			"/>
		</g>
		<g>
			<polygon points="165.086,361.247 167.245,360 165.086,358.754 			"/>
		</g>
	</g>
</g>
<g>
	<path d="M61.635,204.095h-4.723v-0.891h1.816v-5.848h-1.816v-0.797c0.246,0,0.51-0.021,0.791-0.062s0.494-0.101,0.639-0.179
		c0.18-0.098,0.321-0.222,0.425-0.372s0.163-0.353,0.179-0.606h0.908v7.863h1.781V204.095z"/>
	<path d="M69.75,199.73c0,1.566-0.245,2.716-0.735,3.448s-1.251,1.099-2.282,1.099c-1.047,0-1.812-0.371-2.294-1.113
		s-0.724-1.883-0.724-3.422c0-1.551,0.244-2.696,0.732-3.437s1.25-1.11,2.285-1.11c1.047,0,1.812,0.376,2.294,1.128
		S69.75,198.21,69.75,199.73z M68.209,202.39c0.137-0.316,0.229-0.688,0.278-1.116s0.073-0.942,0.073-1.544
		c0-0.594-0.024-1.109-0.073-1.547s-0.144-0.809-0.284-1.113c-0.137-0.301-0.323-0.527-0.56-0.68s-0.54-0.229-0.911-0.229
		c-0.367,0-0.671,0.076-0.911,0.229s-0.431,0.383-0.571,0.691c-0.133,0.289-0.224,0.666-0.272,1.131s-0.073,0.975-0.073,1.529
		c0,0.609,0.021,1.119,0.064,1.529s0.135,0.777,0.275,1.102c0.129,0.305,0.312,0.537,0.548,0.697s0.55,0.24,0.94,0.24
		c0.367,0,0.672-0.076,0.914-0.229S68.077,202.699,68.209,202.39z"/>
	<path d="M77.455,201.663c0,0.754-0.294,1.381-0.882,1.881s-1.327,0.75-2.218,0.75c-0.945,0-1.698-0.244-2.259-0.732
		s-0.841-1.113-0.841-1.875c0-0.484,0.141-0.923,0.422-1.315s0.678-0.704,1.189-0.935v-0.035c-0.469-0.25-0.815-0.523-1.04-0.82
		s-0.337-0.668-0.337-1.113c0-0.656,0.27-1.203,0.809-1.641s1.225-0.656,2.057-0.656c0.871,0,1.566,0.209,2.086,0.627
		s0.779,0.949,0.779,1.594c0,0.395-0.123,0.782-0.369,1.163s-0.607,0.679-1.084,0.894v0.035c0.547,0.234,0.965,0.523,1.254,0.867
		S77.455,201.132,77.455,201.663z M76.248,201.775c0-0.359-0.079-0.647-0.237-0.864s-0.468-0.435-0.929-0.653
		c-0.184-0.086-0.385-0.166-0.604-0.24s-0.51-0.178-0.873-0.311c-0.352,0.191-0.634,0.451-0.847,0.779s-0.319,0.699-0.319,1.113
		c0,0.527,0.182,0.963,0.545,1.307s0.824,0.516,1.383,0.516c0.57,0,1.026-0.146,1.368-0.439S76.248,202.286,76.248,201.775z
		 M76.067,197.404c0-0.418-0.161-0.751-0.483-0.999s-0.733-0.372-1.233-0.372c-0.492,0-0.896,0.117-1.21,0.352
		s-0.472,0.551-0.472,0.949c0,0.281,0.079,0.524,0.237,0.729s0.397,0.388,0.718,0.548c0.145,0.07,0.353,0.162,0.624,0.275
		s0.536,0.207,0.794,0.281c0.387-0.258,0.654-0.525,0.803-0.803S76.067,197.767,76.067,197.404z"/>
	<path d="M85.008,199.73c0,1.566-0.245,2.716-0.735,3.448s-1.251,1.099-2.282,1.099c-1.047,0-1.812-0.371-2.294-1.113
		s-0.724-1.883-0.724-3.422c0-1.551,0.244-2.696,0.732-3.437s1.25-1.11,2.285-1.11c1.047,0,1.812,0.376,2.294,1.128
		S85.008,198.21,85.008,199.73z M83.467,202.39c0.137-0.316,0.229-0.688,0.278-1.116s0.073-0.942,0.073-1.544
		c0-0.594-0.024-1.109-0.073-1.547s-0.144-0.809-0.284-1.113c-0.137-0.301-0.323-0.527-0.56-0.68s-0.54-0.229-0.911-0.229
		c-0.367,0-0.671,0.076-0.911,0.229s-0.431,0.383-0.571,0.691c-0.133,0.289-0.224,0.666-0.272,1.131s-0.073,0.975-0.073,1.529
		c0,0.609,0.021,1.119,0.064,1.529s0.135,0.777,0.275,1.102c0.129,0.305,0.312,0.537,0.548,0.697s0.55,0.24,0.94,0.24
		c0.367,0,0.672-0.076,0.914-0.229S83.334,202.699,83.467,202.39z"/>
	<path d="M93.914,202.829l-0.65,0.65l-2.555-2.578l-2.555,2.578l-0.65-0.65l2.578-2.555l-2.578-2.555l0.65-0.65l2.555,2.578
		l2.555-2.578l0.65,0.65l-2.578,2.555L93.914,202.829z"/>
	<path d="M102.469,204.095h-5.906v-1.225c0.41-0.352,0.821-0.703,1.233-1.055s0.796-0.701,1.151-1.049
		c0.75-0.727,1.264-1.304,1.541-1.731s0.416-0.89,0.416-1.386c0-0.453-0.149-0.808-0.448-1.063s-0.716-0.384-1.251-0.384
		c-0.355,0-0.74,0.062-1.154,0.188s-0.818,0.316-1.213,0.574H96.78v-1.23c0.277-0.137,0.647-0.262,1.11-0.375s0.911-0.17,1.345-0.17
		c0.895,0,1.596,0.216,2.104,0.647s0.762,1.017,0.762,1.755c0,0.332-0.042,0.642-0.126,0.929s-0.208,0.56-0.372,0.817
		c-0.152,0.242-0.331,0.48-0.536,0.715s-0.454,0.494-0.747,0.779c-0.418,0.41-0.85,0.808-1.295,1.192s-0.861,0.741-1.248,1.069
		h4.693V204.095z"/>
	<path d="M109.33,199.894c0.188,0.168,0.342,0.379,0.463,0.633s0.182,0.582,0.182,0.984c0,0.398-0.072,0.764-0.217,1.096
		s-0.348,0.621-0.609,0.867c-0.293,0.273-0.638,0.476-1.034,0.606s-0.831,0.196-1.304,0.196c-0.484,0-0.961-0.058-1.43-0.173
		s-0.854-0.241-1.154-0.378v-1.225h0.088c0.332,0.219,0.723,0.4,1.172,0.545s0.883,0.217,1.301,0.217
		c0.246,0,0.508-0.041,0.785-0.123s0.502-0.203,0.674-0.363c0.18-0.172,0.313-0.361,0.401-0.568s0.132-0.469,0.132-0.785
		c0-0.312-0.05-0.571-0.149-0.776s-0.237-0.366-0.413-0.483c-0.176-0.121-0.389-0.204-0.639-0.249s-0.52-0.067-0.809-0.067h-0.527
		v-0.973h0.41c0.594,0,1.067-0.124,1.421-0.372s0.53-0.61,0.53-1.087c0-0.211-0.045-0.396-0.135-0.554s-0.215-0.288-0.375-0.39
		c-0.168-0.102-0.348-0.172-0.539-0.211s-0.408-0.059-0.65-0.059c-0.371,0-0.766,0.066-1.184,0.199s-0.812,0.32-1.184,0.562h-0.059
		v-1.225c0.277-0.137,0.647-0.263,1.11-0.378s0.911-0.173,1.345-0.173c0.426,0,0.801,0.039,1.125,0.117s0.617,0.203,0.879,0.375
		c0.281,0.188,0.494,0.414,0.639,0.68s0.217,0.576,0.217,0.932c0,0.484-0.171,0.907-0.513,1.269s-0.745,0.589-1.21,0.683v0.082
		c0.188,0.031,0.402,0.097,0.645,0.196S109.162,199.745,109.33,199.894z"/>
	<path d="M117.926,201.64h-1.295v2.455h-1.125v-2.455h-4.178v-1.348l4.225-4.922h1.078v5.332h1.295V201.64z M115.506,200.702v-3.938
		l-3.381,3.938H115.506z"/>
	<path d="M125.344,199.73c0,1.566-0.245,2.716-0.735,3.448s-1.251,1.099-2.282,1.099c-1.047,0-1.812-0.371-2.294-1.113
		s-0.724-1.883-0.724-3.422c0-1.551,0.244-2.696,0.732-3.437s1.25-1.11,2.285-1.11c1.047,0,1.812,0.376,2.294,1.128
		S125.344,198.21,125.344,199.73z M123.803,202.39c0.137-0.316,0.229-0.688,0.278-1.116s0.073-0.942,0.073-1.544
		c0-0.594-0.024-1.109-0.073-1.547s-0.144-0.809-0.284-1.113c-0.137-0.301-0.323-0.527-0.56-0.68s-0.54-0.229-0.911-0.229
		c-0.367,0-0.671,0.076-0.911,0.229s-0.431,0.383-0.571,0.691c-0.133,0.289-0.224,0.666-0.272,1.131s-0.073,0.975-0.073,1.529
		c0,0.609,0.021,1.119,0.064,1.529s0.135,0.777,0.275,1.102c0.129,0.305,0.312,0.537,0.548,0.697s0.55,0.24,0.94,0.24
		c0.367,0,0.672-0.076,0.914-0.229S123.67,202.699,123.803,202.39z"/>
</g>
<g>
	<path fill="#939598" d="M368.128,53.858h-3.936v-0.742h1.514v-4.873h-1.514v-0.664c0.205,0,0.425-0.018,0.659-0.051
		c0.234-0.035,0.411-0.084,0.532-0.149c0.149-0.081,0.268-0.185,0.354-0.31c0.087-0.126,0.136-0.294,0.149-0.506h0.757v6.553h1.484
		V53.858z"/>
	<path fill="#939598" d="M374.89,50.221c0,1.306-0.204,2.263-0.613,2.874c-0.408,0.609-1.042,0.915-1.901,0.915
		c-0.873,0-1.51-0.31-1.912-0.928c-0.401-0.618-0.603-1.569-0.603-2.852c0-1.292,0.203-2.247,0.61-2.864
		c0.406-0.616,1.041-0.925,1.904-0.925c0.872,0,1.51,0.313,1.911,0.94C374.689,48.008,374.89,48.954,374.89,50.221z M373.606,52.437
		c0.113-0.264,0.191-0.573,0.231-0.931c0.041-0.355,0.062-0.785,0.062-1.286c0-0.495-0.021-0.925-0.062-1.289
		c-0.04-0.364-0.119-0.674-0.236-0.928c-0.114-0.251-0.27-0.439-0.467-0.566c-0.196-0.127-0.45-0.19-0.759-0.19
		c-0.307,0-0.56,0.063-0.76,0.19s-0.358,0.319-0.476,0.576c-0.111,0.241-0.187,0.555-0.228,0.942
		c-0.04,0.388-0.061,0.812-0.061,1.274c0,0.508,0.018,0.933,0.054,1.274c0.035,0.342,0.112,0.647,0.229,0.918
		c0.107,0.254,0.26,0.447,0.456,0.581c0.197,0.134,0.458,0.2,0.784,0.2c0.306,0,0.56-0.063,0.762-0.19
		C373.339,52.887,373.495,52.694,373.606,52.437z"/>
	<path fill="#939598" d="M381.311,51.832c0,0.628-0.245,1.15-0.735,1.567c-0.489,0.417-1.105,0.625-1.848,0.625
		c-0.788,0-1.415-0.203-1.883-0.61c-0.467-0.407-0.7-0.928-0.7-1.562c0-0.403,0.117-0.769,0.352-1.097
		c0.234-0.326,0.564-0.586,0.991-0.778v-0.029c-0.391-0.208-0.68-0.437-0.867-0.684c-0.187-0.247-0.28-0.557-0.28-0.928
		c0-0.547,0.225-1.003,0.674-1.367s1.021-0.547,1.714-0.547c0.726,0,1.305,0.174,1.738,0.522c0.433,0.349,0.649,0.791,0.649,1.328
		c0,0.329-0.103,0.652-0.308,0.969c-0.205,0.318-0.507,0.566-0.903,0.745v0.029c0.455,0.195,0.804,0.437,1.045,0.723
		C381.19,51.024,381.311,51.389,381.311,51.832z M380.306,51.925c0-0.3-0.066-0.539-0.198-0.721c-0.132-0.18-0.39-0.361-0.773-0.544
		c-0.153-0.071-0.321-0.139-0.503-0.2c-0.183-0.062-0.425-0.148-0.728-0.259c-0.293,0.159-0.528,0.376-0.706,0.649
		c-0.177,0.273-0.266,0.583-0.266,0.928c0,0.439,0.151,0.803,0.454,1.089s0.687,0.43,1.152,0.43c0.475,0,0.855-0.122,1.14-0.366
		C380.163,52.686,380.306,52.351,380.306,51.925z M380.154,48.282c0-0.349-0.135-0.626-0.403-0.832
		c-0.269-0.207-0.611-0.311-1.027-0.311c-0.41,0-0.746,0.098-1.009,0.293c-0.262,0.195-0.393,0.459-0.393,0.791
		c0,0.234,0.065,0.438,0.197,0.607c0.132,0.172,0.331,0.323,0.599,0.457c0.12,0.059,0.294,0.135,0.52,0.229
		c0.227,0.095,0.447,0.173,0.662,0.234c0.322-0.215,0.545-0.438,0.669-0.669C380.092,48.851,380.154,48.585,380.154,48.282z"/>
	<path fill="#939598" d="M387.605,50.221c0,1.306-0.204,2.263-0.613,2.874c-0.408,0.609-1.042,0.915-1.901,0.915
		c-0.873,0-1.51-0.31-1.912-0.928c-0.401-0.618-0.603-1.569-0.603-2.852c0-1.292,0.203-2.247,0.61-2.864
		c0.406-0.616,1.041-0.925,1.904-0.925c0.872,0,1.51,0.313,1.911,0.94C387.404,48.008,387.605,48.954,387.605,50.221z
		 M386.321,52.437c0.113-0.264,0.191-0.573,0.231-0.931c0.041-0.355,0.062-0.785,0.062-1.286c0-0.495-0.021-0.925-0.062-1.289
		c-0.04-0.364-0.119-0.674-0.236-0.928c-0.114-0.251-0.27-0.439-0.467-0.566c-0.196-0.127-0.45-0.19-0.759-0.19
		c-0.307,0-0.56,0.063-0.76,0.19s-0.358,0.319-0.476,0.576c-0.111,0.241-0.187,0.555-0.228,0.942
		c-0.04,0.388-0.061,0.812-0.061,1.274c0,0.508,0.018,0.933,0.054,1.274c0.035,0.342,0.112,0.647,0.229,0.918
		c0.107,0.254,0.26,0.447,0.456,0.581c0.197,0.134,0.458,0.2,0.784,0.2c0.306,0,0.56-0.063,0.762-0.19
		C386.054,52.887,386.21,52.694,386.321,52.437z"/>
</g>
<g>
	<g>
		
			<line fill="none" stroke="#939598" stroke-width="0.5" stroke-miterlimit="10" x1="299.432" y1="59.528" x2="448.915" y2="59.528"/>
		<g>
			<polygon fill="#939598" points="299.797,60.774 297.638,59.528 299.797,58.281 			"/>
		</g>
		<g>
			<polygon fill="#939598" points="448.55,60.774 450.709,59.528 448.55,58.281 			"/>
		</g>
	</g>
</g>
<g>
</g>
<g>
</g>
<g>
</g>
<g>
</g>
<g>
</g>
<g>
</g>
<g>
</g>
</svg>
