<?xml version="1.0" encoding="utf-8"?>
<!-- Generator: Adobe Illustrator 24.3.0, SVG Export Plug-In . SVG Version: 6.00 Build 0)  -->
<svg version="1.1" id="Layer_1" xmlns="http://www.w3.org/2000/svg" xmlns:xlink="http://www.w3.org/1999/xlink" x="0px" y="0px"
	 viewBox="0 0 256 256" style="enable-background:new 0 0 256 256;" xml:space="preserve">
<style type="text/css">
	.st0{fill:#FFFFFF;}
	.st1{fill:#242424;}
</style>
<path class="st0" d="M0,0h256v256H0V0z"/>
<g>
	<polygon id="H_1_" class="st1" points="52,93.8 52,162.5 65.8,162.5 65.8,132.5 93,132.5 93,162.5 106.9,162.5 106.9,93.8 93,93.8 
		93,120.8 65.8,120.8 65.8,93.8 	"/>
	<path id="C_1_" class="st1" d="M164.8,116l13.7-3.3c0,0-3.1-19.8-28.1-20.2c-25-0.4-30.4,24.7-30.4,24.7s-8.1,32.2,17.6,44
		c29.7,9.3,40.4-13.3,41.2-19.8l-13.5-4.3c0,0-2.1,14.8-16.5,14.6c-14.4-0.2-16.1-18-15.6-25.6c0.4-7.6,2-23,18.9-21.7
		C158.6,105,162.5,108.9,164.8,116z"/>
	<rect id="I_1_" x="190.2" y="93.8" class="st1" width="13.9" height="68.7"/>
</g>
</svg>
